<svg width="94" height="24" viewBox="0 0 94 24" fill="none" xmlns="http://www.w3.org/2000/svg">
<g clip-path="url(#clip0_12_141)">
<path fill-rule="evenodd" clip-rule="evenodd" d="M13.1854 15.3818V8.6182C13.1854 9.236 12.2924 9.78123 10.9309 10.1063C10.0971 10.3053 9.08767 10.4218 8 10.4218C6.91233 10.4218 5.90287 10.3053 5.0691 10.1063C3.70757 9.78123 2.81455 9.236 2.81455 8.6182V15.3818C2.81455 15.9996 3.70757 16.5449 5.0691 16.8699C5.90287 17.069 6.91233 17.1855 8 17.1855C9.08767 17.1855 10.0971 17.069 10.9309 16.8699C12.2924 16.5449 13.1854 15.9996 13.1854 15.3818Z" fill="#0D141C"/>
<path fill-rule="evenodd" clip-rule="evenodd" d="M3.48283 8.6173C3.49163 8.64237 3.5401 8.74867 3.793 8.91203C4.09933 9.10993 4.58307 9.30483 5.2239 9.45783C6.00023 9.6432 6.95707 9.75517 8 9.75517C9.04293 9.75517 9.99977 9.6432 10.7761 9.45783C11.4169 9.30483 11.9007 9.10993 12.207 8.91203C12.4599 8.74867 12.5084 8.64237 12.5172 8.6173C12.5096 8.59587 12.4778 8.53243 12.3545 8.43103C12.1755 8.28387 11.8763 8.12157 11.4477 7.9725C10.5967 7.6765 9.37777 7.48123 8 7.48123C6.62223 7.48123 5.4033 7.6765 4.55233 7.9725C4.12373 8.12157 3.82447 8.28387 3.6455 8.43103C3.52223 8.53243 3.49043 8.59587 3.48283 8.6173ZM12.5188 10.2626C12.1059 10.4642 11.6167 10.628 11.0857 10.7547C10.1945 10.9675 9.13243 11.0885 8 11.0885C6.86757 11.0885 5.80547 10.9675 4.9143 10.7547C4.38327 10.628 3.89413 10.4642 3.4812 10.2626V15.3758C3.48383 15.3848 3.51423 15.4956 3.793 15.6757C4.09933 15.8736 4.58307 16.0685 5.2239 16.2215C6.00023 16.4068 6.95707 16.5188 8 16.5188C9.04293 16.5188 9.99977 16.4068 10.7761 16.2215C11.4169 16.0685 11.9007 15.8736 12.207 15.6757C12.4858 15.4956 12.5162 15.3849 12.5188 15.3758V10.2626ZM13.8521 8.6182V15.3818C13.8521 16.0359 13.386 16.5014 12.9305 16.7956C12.4499 17.1061 11.8064 17.3463 11.0857 17.5184C10.1945 17.7311 9.13243 17.8521 8 17.8521C6.86757 17.8521 5.80547 17.7311 4.9143 17.5184C4.1936 17.3463 3.55007 17.1061 3.06949 16.7956C2.61402 16.5014 2.14788 16.0359 2.14788 15.3818V8.6182C2.14788 8.08947 2.45741 7.6818 2.7986 7.4012C3.14442 7.11683 3.60457 6.89047 4.11433 6.71316C5.1401 6.35636 6.51393 6.14789 8 6.14789C9.48607 6.14789 10.8599 6.35636 11.8857 6.71316C12.3954 6.89047 12.8556 7.11683 13.2014 7.4012C13.5426 7.6818 13.8521 8.08947 13.8521 8.6182Z" fill="#0D141C"/>
</g>
<path d="M40.2393 9.17401C40.1882 8.65838 39.9688 8.25781 39.581 7.9723C39.1932 7.68679 38.6669 7.54403 38.0021 7.54403C37.5504 7.54403 37.169 7.60795 36.858 7.7358C36.5469 7.85937 36.3082 8.03196 36.142 8.25355C35.9801 8.47514 35.8991 8.72656 35.8991 9.00781C35.8906 9.24219 35.9396 9.44673 36.0462 9.62145C36.157 9.79616 36.3082 9.94744 36.5 10.0753C36.6918 10.1989 36.9134 10.3075 37.1648 10.4013C37.4162 10.4908 37.6847 10.5675 37.9702 10.6314L39.1463 10.9126C39.7173 11.0405 40.2415 11.2109 40.7188 11.424C41.196 11.6371 41.6094 11.8991 41.9588 12.2102C42.3082 12.5213 42.5788 12.8878 42.7706 13.3097C42.9666 13.7315 43.0668 14.2152 43.071 14.7607C43.0668 15.5618 42.8622 16.2564 42.4574 16.8445C42.0568 17.4283 41.4773 17.8821 40.7188 18.206C39.9645 18.5256 39.0547 18.6854 37.9893 18.6854C36.9325 18.6854 36.0121 18.5234 35.228 18.1996C34.4482 17.8757 33.8388 17.3963 33.3999 16.7614C32.9652 16.1222 32.7372 15.3317 32.7159 14.3899H35.3942C35.424 14.8288 35.5497 15.1953 35.7713 15.4893C35.9972 15.7791 36.2976 15.9986 36.6726 16.1477C37.0518 16.2926 37.4801 16.3651 37.9574 16.3651C38.4261 16.3651 38.8331 16.2969 39.1783 16.1605C39.5277 16.0241 39.7983 15.8345 39.9901 15.5916C40.1818 15.3487 40.2777 15.0696 40.2777 14.7543C40.2777 14.4602 40.1903 14.2131 40.0156 14.0128C39.8452 13.8125 39.5938 13.642 39.2614 13.5014C38.9332 13.3608 38.5305 13.233 38.0533 13.1179L36.6278 12.7599C35.5241 12.4915 34.6527 12.0717 34.0135 11.5007C33.3743 10.9297 33.0568 10.1605 33.0611 9.19318C33.0568 8.40057 33.2678 7.7081 33.6939 7.11577C34.1243 6.52344 34.7145 6.06108 35.4645 5.72869C36.2145 5.39631 37.0668 5.23011 38.0213 5.23011C38.9929 5.23011 39.8409 5.39631 40.5653 5.72869C41.294 6.06108 41.8608 6.52344 42.2656 7.11577C42.6705 7.7081 42.8793 8.39418 42.892 9.17401H40.2393ZM51.1777 14.3196V8.68182H53.9007V18.5H51.2864V16.7166H51.1841C50.9625 17.2919 50.5939 17.7543 50.0783 18.1037C49.5669 18.4531 48.9426 18.6278 48.2054 18.6278C47.5492 18.6278 46.9718 18.4787 46.4732 18.1804C45.9746 17.8821 45.5847 17.4581 45.3034 16.9084C45.0265 16.3587 44.8858 15.7003 44.8816 14.9332V8.68182H47.6046V14.4474C47.6088 15.027 47.7644 15.4851 48.0712 15.8217C48.378 16.1584 48.7892 16.3267 49.3049 16.3267C49.633 16.3267 49.9398 16.2521 50.2253 16.103C50.5108 15.9496 50.7409 15.7237 50.9157 15.4254C51.0946 15.1271 51.182 14.7585 51.1777 14.3196ZM56.0788 22.1818V8.68182H58.7635V10.331H58.8849C59.0043 10.0668 59.1768 9.7983 59.4027 9.52557C59.6328 9.24858 59.9311 9.01847 60.2976 8.83523C60.6683 8.64773 61.1286 8.55398 61.6783 8.55398C62.3942 8.55398 63.0547 8.74148 63.6598 9.11648C64.2649 9.48722 64.7486 10.0476 65.1108 10.7976C65.473 11.5433 65.6541 12.4787 65.6541 13.6037C65.6541 14.6989 65.4773 15.6236 65.1236 16.3778C64.7741 17.1278 64.2969 17.6967 63.6918 18.0845C63.0909 18.468 62.4176 18.6598 61.6719 18.6598C61.1435 18.6598 60.6939 18.5724 60.3232 18.3977C59.9567 18.223 59.6562 18.0036 59.4219 17.7393C59.1875 17.4709 59.0085 17.2003 58.8849 16.9276H58.8018V22.1818H56.0788ZM58.7443 13.5909C58.7443 14.1747 58.8253 14.6839 58.9872 15.1186C59.1491 15.5533 59.3835 15.892 59.6903 16.1349C59.9972 16.3736 60.37 16.4929 60.8089 16.4929C61.2521 16.4929 61.6271 16.3714 61.9339 16.1286C62.2408 15.8814 62.473 15.5405 62.6307 15.1058C62.7926 14.6669 62.8736 14.1619 62.8736 13.5909C62.8736 13.0241 62.7947 12.5256 62.6371 12.0952C62.4794 11.6648 62.2472 11.3281 61.9403 11.0852C61.6335 10.8423 61.2564 10.7209 60.8089 10.7209C60.3658 10.7209 59.9908 10.8381 59.6839 11.0724C59.3814 11.3068 59.1491 11.6392 58.9872 12.0696C58.8253 12.5 58.7443 13.0071 58.7443 13.5909ZM67.4695 22.1818V8.68182H70.1541V10.331H70.2756C70.3949 10.0668 70.5675 9.7983 70.7933 9.52557C71.0234 9.24858 71.3217 9.01847 71.6882 8.83523C72.0589 8.64773 72.5192 8.55398 73.0689 8.55398C73.7848 8.55398 74.4453 8.74148 75.0504 9.11648C75.6555 9.48722 76.1392 10.0476 76.5014 10.7976C76.8636 11.5433 77.0447 12.4787 77.0447 13.6037C77.0447 14.6989 76.8679 15.6236 76.5142 16.3778C76.1648 17.1278 75.6875 17.6967 75.0824 18.0845C74.4815 18.468 73.8082 18.6598 73.0625 18.6598C72.5341 18.6598 72.0845 18.5724 71.7138 18.3977C71.3473 18.223 71.0469 18.0036 70.8125 17.7393C70.5781 17.4709 70.3991 17.2003 70.2756 16.9276H70.1925V22.1818H67.4695ZM70.1349 13.5909C70.1349 14.1747 70.2159 14.6839 70.3778 15.1186C70.5398 15.5533 70.7741 15.892 71.081 16.1349C71.3878 16.3736 71.7607 16.4929 72.1996 16.4929C72.6428 16.4929 73.0178 16.3714 73.3246 16.1286C73.6314 15.8814 73.8636 15.5405 74.0213 15.1058C74.1832 14.6669 74.2642 14.1619 74.2642 13.5909C74.2642 13.0241 74.1854 12.5256 74.0277 12.0952C73.87 11.6648 73.6378 11.3281 73.331 11.0852C73.0241 10.8423 72.647 10.7209 72.1996 10.7209C71.7564 10.7209 71.3814 10.8381 71.0746 11.0724C70.772 11.3068 70.5398 11.6392 70.3778 12.0696C70.2159 12.5 70.1349 13.0071 70.1349 13.5909ZM81.5831 5.40909V18.5H78.8601V5.40909H81.5831ZM85.4455 22.1818C85.1003 22.1818 84.7765 22.1541 84.4739 22.0987C84.1756 22.0476 83.9284 21.9815 83.7324 21.9006L84.3461 19.8679C84.6657 19.9659 84.9533 20.0192 85.209 20.0277C85.4689 20.0362 85.6926 19.9766 85.8801 19.8487C86.0719 19.7209 86.2275 19.5036 86.3468 19.1967L86.5066 18.7812L82.9846 8.68182H85.8482L87.8809 15.892H87.9831L90.035 8.68182H92.9178L89.1017 19.5611C88.9185 20.0895 88.6692 20.5497 88.3539 20.9418C88.0428 21.3381 87.6486 21.6428 87.1713 21.8558C86.6941 22.0732 86.1188 22.1818 85.4455 22.1818Z" fill="#0D141C"/>
<defs>
<clipPath id="clip0_12_141">
<rect width="16" height="16" fill="white" transform="translate(0 4)"/>
</clipPath>
</defs>
</svg>
